<svg width="18" height="18" viewBox="0 0 18 18" fill="none" xmlns="http://www.w3.org/2000/svg">
<path d="M9 16C7.975 16 7.00625 15.803 6.09375 15.409C5.18125 15.015 4.38425 14.4775 3.70275 13.7965C3.02175 13.1155 2.48425 12.3188 2.09025 11.4062C1.69625 10.4937 1.4995 9.525 1.5 8.5C1.5 7.4625 1.697 6.4905 2.091 5.584C2.485 4.6775 3.0225 3.884 3.7035 3.2035C4.3845 2.522 5.181 1.9845 6.093 1.591C7.005 1.1975 7.974 1.0005 9 1C10.0375 1 11.0095 1.197 11.916 1.591C12.8225 1.985 13.616 2.5225 14.2965 3.2035C14.978 3.8845 15.5155 4.67825 15.909 5.58475C16.3025 6.49125 16.4995 7.463 16.5 8.5V9.5875C16.5 10.325 16.247 10.9532 15.741 11.4722C15.235 11.9913 14.613 12.2505 13.875 12.25C13.425 12.25 13.0063 12.15 12.6188 11.95C12.2313 11.75 11.9125 11.4875 11.6625 11.1625C11.325 11.5 10.928 11.7658 10.4715 11.9598C10.015 12.1538 9.5245 12.2505 9 12.25C7.9625 12.25 7.078 11.8842 6.3465 11.1528C5.615 10.4212 5.2495 9.537 5.25 8.5C5.25 7.4625 5.61575 6.578 6.34725 5.8465C7.07875 5.115 7.963 4.7495 9 4.75C10.0375 4.75 10.922 5.11575 11.6535 5.84725C12.385 6.57875 12.7505 7.463 12.75 8.5V9.5875C12.75 9.95 12.8625 10.2343 13.0875 10.4403C13.3125 10.6462 13.575 10.7495 13.875 10.75C14.175 10.75 14.4375 10.6467 14.6625 10.4403C14.8875 10.2338 15 9.9495 15 9.5875V8.5C15 6.8625 14.4093 5.453 13.2277 4.2715C12.0463 3.09 10.637 2.4995 9 2.5C7.3625 2.5 5.953 3.09075 4.7715 4.27225C3.59 5.45375 2.9995 6.863 3 8.5C3 10.1375 3.59075 11.547 4.77225 12.7285C5.95375 13.91 7.363 14.5005 9 14.5H12.75V16H9ZM9 10.75C9.625 10.75 10.1563 10.5312 10.5938 10.0938C11.0313 9.65625 11.25 9.125 11.25 8.5C11.25 7.875 11.0313 7.34375 10.5938 6.90625C10.1563 6.46875 9.625 6.25 9 6.25C8.375 6.25 7.84375 6.46875 7.40625 6.90625C6.96875 7.34375 6.75 7.875 6.75 8.5C6.75 9.125 6.96875 9.65625 7.40625 10.0938C7.84375 10.5312 8.375 10.75 9 10.75Z" fill="black"/>
</svg>
