<svg width="18" height="18" viewBox="0 0 17 17" fill="none" xmlns="http://www.w3.org/2000/svg">
<path d="M8.5 12.0416C8.87573 12.0416 9.23606 11.8923 9.50174 11.6267C9.76741 11.361 9.91667 11.0006 9.91667 10.6249C9.91667 10.2492 9.76741 9.88886 9.50174 9.62318C9.23606 9.35751 8.87573 9.20825 8.5 9.20825C8.12428 9.20825 7.76394 9.35751 7.49827 9.62318C7.23259 9.88886 7.08334 10.2492 7.08334 10.6249C7.08334 11.0006 7.23259 11.361 7.49827 11.6267C7.76394 11.8923 8.12428 12.0416 8.5 12.0416ZM12.75 5.66658C13.1257 5.66658 13.4861 5.81584 13.7517 6.08152C14.0174 6.34719 14.1667 6.70753 14.1667 7.08325V14.1666C14.1667 14.5423 14.0174 14.9026 13.7517 15.1683C13.4861 15.434 13.1257 15.5833 12.75 15.5833H4.25C3.87428 15.5833 3.51394 15.434 3.24827 15.1683C2.98259 14.9026 2.83334 14.5423 2.83334 14.1666V7.08325C2.83334 6.70753 2.98259 6.34719 3.24827 6.08152C3.51394 5.81584 3.87428 5.66658 4.25 5.66658H4.95834V4.24992C4.95834 3.31061 5.33147 2.40977 5.99567 1.74558C6.65986 1.08139 7.56069 0.708252 8.5 0.708252C8.9651 0.708252 9.42564 0.79986 9.85534 0.977845C10.285 1.15583 10.6755 1.41671 11.0043 1.74558C11.3332 2.07446 11.5941 2.46489 11.7721 2.89458C11.9501 3.32428 12.0417 3.78482 12.0417 4.24992V5.66658H12.75ZM8.5 2.12492C7.93642 2.12492 7.39592 2.3488 6.9974 2.74732C6.59889 3.14583 6.375 3.68633 6.375 4.24992V5.66658H10.625V4.24992C10.625 3.68633 10.4011 3.14583 10.0026 2.74732C9.60409 2.3488 9.06359 2.12492 8.5 2.12492Z" fill="black"/>
</svg>
